<svg viewBox="0 0 633 217" fill="none" xmlns="http://www.w3.org/2000/svg">
	<path d="M15.1011 172.531C7.0134 172.531 0.457031 165.975 0.457031 157.887L0.457031 59.0397C0.457031 50.952 7.0134 44.3957 15.1011 44.3957H44.4222L44.4222 172.531H15.1011Z" stroke="white" stroke-width="0.915254"/>
	<rect x="44.4219" y="172.531" width="42.7119" height="45.3391" transform="rotate(-90 44.4219 172.531)" stroke="white" stroke-width="0.915254"/>
	<rect x="44.4219" y="129.82" width="42.7119" height="45.3391" transform="rotate(-90 44.4219 129.82)" stroke="white" stroke-width="0.915254"/>
	<rect x="44.4219" y="87.1094" width="42.7119" height="45.3391" transform="rotate(-90 44.4219 87.1094)" stroke="white" stroke-width="0.915254"/>
	<rect x="89.7617" y="172.531" width="42.7119" height="45.3391" transform="rotate(-90 89.7617 172.531)" stroke="white" stroke-width="0.915254"/>
	<rect x="89.7617" y="129.82" width="42.7119" height="45.3391" transform="rotate(-90 89.7617 129.82)" stroke="white" stroke-width="0.915254"/>
	<rect x="89.7617" y="87.1094" width="42.7119" height="45.3391" transform="rotate(-90 89.7617 87.1094)" stroke="white" stroke-width="0.915254"/>
	<rect x="135.102" y="172.531" width="42.7119" height="45.3391" transform="rotate(-90 135.102 172.531)" stroke="white" stroke-width="0.915254"/>
	<rect x="135.102" y="129.82" width="42.7119" height="45.3391" transform="rotate(-90 135.102 129.82)" stroke="white" stroke-width="0.915254"/>
	<rect x="135.102" y="87.1094" width="42.7119" height="45.3391" transform="rotate(-90 135.102 87.1094)" stroke="white" stroke-width="0.915254"/>
	<rect x="180.438" y="172.531" width="42.7119" height="45.3391" transform="rotate(-90 180.438 172.531)" stroke="white" stroke-width="0.915254"/>
	<rect x="180.438" y="129.82" width="42.7119" height="45.3391" transform="rotate(-90 180.438 129.82)" stroke="white" stroke-width="0.915254"/>
	<rect x="180.438" y="87.1094" width="42.7119" height="45.3391" transform="rotate(-90 180.438 87.1094)" stroke="white" stroke-width="0.915254"/>
	<rect x="225.777" y="172.531" width="42.7119" height="45.3391" transform="rotate(-90 225.777 172.531)" stroke="white" stroke-width="0.915254"/>
	<rect x="225.777" y="129.82" width="42.7119" height="45.3391" transform="rotate(-90 225.777 129.82)" stroke="white" stroke-width="0.915254"/>
	<rect x="225.777" y="87.1094" width="42.7119" height="45.3391" transform="rotate(-90 225.777 87.1094)" stroke="white" stroke-width="0.915254"/>
	<rect x="271.117" y="172.531" width="42.7119" height="45.3391" transform="rotate(-90 271.117 172.531)" stroke="white" stroke-width="0.915254"/>
	<rect x="271.117" y="129.82" width="42.7119" height="45.3391" transform="rotate(-90 271.117 129.82)" stroke="white" stroke-width="0.915254"/>
	<rect x="271.117" y="87.1094" width="42.7119" height="45.3391" transform="rotate(-90 271.117 87.1094)" stroke="white" stroke-width="0.915254"/>
	<rect x="316.457" y="172.531" width="42.7119" height="45.3391" transform="rotate(-90 316.457 172.531)" stroke="white" stroke-width="0.915254"/>
	<rect x="316.457" y="129.82" width="42.7119" height="45.3391" transform="rotate(-90 316.457 129.82)" stroke="white" stroke-width="0.915254"/>
	<rect x="316.457" y="87.1094" width="42.7119" height="45.3391" transform="rotate(-90 316.457 87.1094)" stroke="white" stroke-width="0.915254"/>
	<rect x="361.797" y="172.531" width="42.7119" height="45.3391" transform="rotate(-90 361.797 172.531)" stroke="white" stroke-width="0.915254"/>
	<rect x="361.797" y="129.82" width="42.7119" height="45.3391" transform="rotate(-90 361.797 129.82)" stroke="white" stroke-width="0.915254"/>
	<rect x="361.797" y="87.1094" width="42.7119" height="45.3391" transform="rotate(-90 361.797 87.1094)" stroke="white" stroke-width="0.915254"/>
	<rect x="407.137" y="172.531" width="42.7119" height="45.3391" transform="rotate(-90 407.137 172.531)" stroke="white" stroke-width="0.915254"/>
	<rect x="407.137" y="129.82" width="42.7119" height="45.3391" transform="rotate(-90 407.137 129.82)" stroke="white" stroke-width="0.915254"/>
	<rect x="407.137" y="87.1094" width="42.7119" height="45.3391" transform="rotate(-90 407.137 87.1094)" stroke="white" stroke-width="0.915254"/>
	<rect x="452.473" y="172.531" width="42.7119" height="45.3391" transform="rotate(-90 452.473 172.531)" stroke="white" stroke-width="0.915254"/>
	<rect x="452.473" y="129.82" width="42.7119" height="45.3391" transform="rotate(-90 452.473 129.82)" stroke="white" stroke-width="0.915254"/>
	<rect x="452.473" y="87.1094" width="42.7119" height="45.3391" transform="rotate(-90 452.473 87.1094)" stroke="white" stroke-width="0.915254"/>
	<rect x="497.812" y="172.531" width="42.7119" height="45.3391" transform="rotate(-90 497.812 172.531)" stroke="white" stroke-width="0.915254"/>
	<rect x="497.812" y="129.82" width="42.7119" height="45.3391" transform="rotate(-90 497.812 129.82)" stroke="white" stroke-width="0.915254"/>
	<rect x="497.812" y="87.1094" width="42.7119" height="45.3391" transform="rotate(-90 497.812 87.1094)" stroke="white" stroke-width="0.915254"/>
	<rect x="543.152" y="172.531" width="42.7119" height="45.3391" transform="rotate(-90 543.152 172.531)" stroke="white" stroke-width="0.915254"/>
	<rect x="543.152" y="129.82" width="42.7119" height="45.3391" transform="rotate(-90 543.152 129.82)" stroke="white" stroke-width="0.915254"/>
	<rect x="543.152" y="87.1094" width="42.7119" height="45.3391" transform="rotate(-90 543.152 87.1094)" stroke="white" stroke-width="0.915254"/>
	<path d="M59.0659 216.461C50.9783 216.461 44.4219 209.905 44.4219 201.817V172.529H135.1V216.461H59.0659Z" stroke="white" stroke-width="0.915254"/>
	<rect x="135.102" y="216.461" width="43.9322" height="90.6783" transform="rotate(-90 135.102 216.461)" stroke="white" stroke-width="0.915254"/>
	<rect x="225.777" y="216.461" width="43.9322" height="90.6783" transform="rotate(-90 225.777 216.461)" stroke="white" stroke-width="0.915254"/>
	<rect x="316.457" y="216.461" width="43.9322" height="90.6783" transform="rotate(-90 316.457 216.461)" stroke="white" stroke-width="0.915254"/>
	<rect x="407.137" y="216.461" width="43.9322" height="90.6783" transform="rotate(-90 407.137 216.461)" stroke="white" stroke-width="0.915254"/>
	<path d="M497.812 216.461V172.529H588.491V201.817C588.491 209.905 581.934 216.461 573.847 216.461H497.812Z" stroke="white" stroke-width="0.915254"/>
	<path d="M44.4219 44.3906V15.1025C44.4219 7.01478 50.9782 0.458424 59.0659 0.458424L225.778 0.458424V44.3906L44.4219 44.3906Z" stroke="white" stroke-width="0.915254"/>
	<rect x="225.777" y="44.3906" width="43.9322" height="181.357" transform="rotate(-90 225.777 44.3906)" stroke="white" stroke-width="0.915254"/>
	<path d="M407.137 44.3906V0.458424L573.849 0.458424C581.937 0.458424 588.493 7.0148 588.493 15.1025V44.3906L407.137 44.3906Z" stroke="white" stroke-width="0.915254"/>
	<path d="M588.492 172.531V129.819H632.457V157.887C632.457 165.975 625.901 172.531 617.813 172.531H588.492Z" stroke="white" stroke-width="0.915254"/>
	<rect x="588.492" y="129.82" width="42.7119" height="43.9652" transform="rotate(-90 588.492 129.82)" stroke="white" stroke-width="0.915254"/>
	<path d="M588.492 87.1094V44.3975H617.813C625.901 44.3975 632.457 50.9539 632.457 59.0416V87.1094H588.492Z" stroke="white" stroke-width="0.915254"/>
</svg>
